<svg width="120" height="120" viewBox="0 0 120 120" fill="none" xmlns="http://www.w3.org/2000/svg">
<ellipse cx="64.3307" cy="58.4106" rx="37.6744" ry="25.9603" fill="white"/>
<path d="M77.6118 76.667C69.4686 79.25 60.6955 81.7439 51.8775 77.3573C35.7936 69.341 37.0983 45.4702 53.1597 39.5025C61.3704 36.4073 72.3929 37.877 77.4993 42.954C76.1084 44.9075 74.4591 46.6675 72.5954 48.1868C63.7324 40.5714 50.1004 44.4459 48.7732 56.8266C46.9736 73.0374 64.1823 75.6426 70.5708 71.6345V61.8368H62.1577V55.6687H77.6118V76.667ZM7 39.6807V79.7621C7 94.1915 19.7547 99.2239 28.3252 104.657C33.0942 107.708 37.8181 110.402 42.722 113.386C61.6853 124.943 66.6117 119.866 84.0228 109.556L104.831 96.7745C108.407 93.7684 113.154 87.5558 113.154 82.4565V37.8547C113.154 28.9477 105.775 23.0468 99.2969 19.1055L92.166 14.8747C85.9574 11.1337 69.716 0 63.035 0C51.3826 0 52.3949 0.489885 42.0022 6.68025C37.1883 9.55275 17.8651 20.5529 14.1759 24.227C11.9657 26.172 10.1869 28.5495 8.95177 31.2094C7.71666 33.8692 7.05208 36.7537 7 39.6807H7Z" fill="#1395CC"/>
</svg>
